<?xml version="1.0" standalone="no"?>
<!DOCTYPE svg PUBLIC "-//W3C//DTD SVG 20010904//EN"
 "http://www.w3.org/TR/2001/REC-SVG-20010904/DTD/svg10.dtd">
<svg version="1.0" xmlns="http://www.w3.org/2000/svg"
 width="512.000000pt" height="512.000000pt" viewBox="0 0 512.000000 512.000000"
 preserveAspectRatio="xMidYMid meet">

<g transform="translate(0.000000,512.000000) scale(0.100000,-0.100000)"
fill="#000000" stroke="none">
<path d="M1415 4309 c-814 -14 -944 -36 -1089 -184 -215 -219 -307 -618 -322
-1405 -11 -550 24 -1003 97 -1280 65 -242 178 -433 306 -513 171 -107 407
-121 2163 -120 1747 0 1972 12 2140 118 165 104 289 354 349 706 43 251 55
448 55 924 0 444 -6 580 -39 825 -50 367 -140 605 -287 751 -103 104 -215 140
-488 159 -381 26 -1913 36 -2885 19z m1338 -1289 c416 -250 757 -457 757 -460
0 -4 -942 -573 -1551 -938 l-39 -23 0 961 0 961 39 -23 c21 -13 378 -228 794
-478z"/>
</g>
</svg>
