<?xml version="1.0" standalone="no"?>
<!DOCTYPE svg PUBLIC "-//W3C//DTD SVG 20010904//EN"
 "http://www.w3.org/TR/2001/REC-SVG-20010904/DTD/svg10.dtd">
<svg version="1.0" xmlns="http://www.w3.org/2000/svg"
 width="696.000000pt" height="696.000000pt" viewBox="0 0 696.000000 696.000000"
 preserveAspectRatio="xMidYMid meet">

<g transform="translate(0.000000,696.000000) scale(0.100000,-0.100000)"
fill="#000000" stroke="none">
<path d="M0 6373 l0 -588 418 -276 c229 -152 635 -421 902 -598 302 -200 476
-321 462 -321 -28 0 -88 30 -165 82 -76 52 -109 63 -139 47 -30 -16 -38 -28
-38 -63 0 -35 32 -86 70 -111 17 -11 31 -34 38 -61 24 -88 105 -145 292 -205
67 -22 82 -31 150 -100 81 -82 134 -109 217 -109 75 0 118 27 173 108 15 22
16 22 180 -88 90 -60 168 -110 173 -110 4 0 6 -4 3 -8 -3 -5 -27 -5 -53 -1
-26 4 -127 8 -223 9 -154 0 -217 6 -282 26 -40 12 -2 -69 56 -119 21 -18 20
-19 -31 -13 -29 3 -95 19 -146 36 -75 24 -108 30 -158 28 l-64 -3 45 -22 45
-22 -122 0 c-67 -1 -128 -4 -137 -7 -24 -9 -8 -24 27 -25 38 -1 75 -13 61 -21
-5 -3 -36 -13 -68 -23 -90 -25 -166 -55 -166 -65 0 -5 29 -10 65 -12 36 -2 66
-7 66 -13 1 -8 -99 -50 -165 -69 -16 -4 -17 -7 -6 -20 7 -9 18 -16 26 -16 7 0
25 -5 40 -10 26 -10 26 -11 9 -30 -9 -10 -66 -40 -126 -66 -60 -26 -109 -51
-109 -56 0 -4 36 -8 80 -8 73 0 97 -9 70 -25 -17 -10 -11 -25 10 -25 11 0 43
9 72 20 69 26 74 25 49 -6 -23 -29 -28 -59 -8 -51 6 3 49 21 95 41 l82 35 -6
-39 c-4 -22 -3 -40 1 -40 4 0 40 20 79 45 40 25 75 45 79 45 3 0 -3 -19 -13
-42 -16 -36 -17 -44 -5 -46 17 -4 121 74 158 118 32 38 47 38 47 0 0 -16 4
-30 8 -30 5 0 37 56 71 125 59 118 65 127 109 149 57 29 121 50 129 43 3 -3
-11 -30 -30 -59 -44 -65 -62 -106 -54 -115 4 -3 56 16 115 45 113 53 152 68
152 56 0 -3 -13 -30 -29 -58 -16 -28 -41 -85 -56 -126 l-26 -75 -97 -46 c-155
-74 -370 -246 -571 -455 -52 -55 -150 -156 -217 -225 -133 -138 -143 -156
-130 -246 8 -58 52 -139 93 -170 44 -34 106 -51 248 -68 97 -11 155 -26 300
-75 99 -34 233 -76 297 -95 110 -32 166 -44 451 -95 77 -14 134 -31 185 -56
89 -43 118 -83 192 -261 l50 -123 -2 -109 c-3 -125 8 -151 67 -151 37 0 53 19
77 92 9 25 34 69 56 97 72 91 79 202 22 345 -16 42 -30 87 -30 99 0 13 14 63
30 113 36 105 34 141 -11 178 -40 34 -48 35 -214 38 -140 3 -140 3 -230 44
-49 22 -188 100 -309 172 -219 132 -285 162 -360 162 -68 0 -72 15 -9 34 236
73 427 161 603 276 78 52 128 79 135 74 15 -11 127 -86 150 -99 15 -9 16 -16
4 -71 -12 -57 -11 -64 9 -103 18 -34 22 -60 23 -144 1 -151 2 -151 78 -155
l62 -3 -6 -54 c-8 -63 6 -73 43 -30 13 14 27 23 31 20 15 -8 115 -146 143
-195 14 -25 36 -73 48 -107 13 -35 26 -63 30 -63 11 0 19 35 26 113 4 42 11
66 18 64 6 -2 22 -26 36 -54 14 -29 35 -62 47 -75 12 -13 35 -48 50 -78 24
-45 47 -68 133 -133 58 -43 107 -83 108 -88 2 -5 10 -9 19 -9 10 0 14 9 13 28
-3 43 -1 46 18 30 32 -28 121 -73 129 -65 4 4 1 17 -6 28 -7 12 -10 23 -8 25
2 2 33 -9 68 -26 83 -39 129 -48 129 -27 0 9 -4 19 -10 22 -5 3 -14 15 -20 25
-10 18 -5 17 55 -5 36 -14 75 -25 87 -25 l21 0 -21 23 c-12 13 -22 26 -22 30
0 4 31 7 69 7 39 0 72 4 75 9 4 5 -33 23 -81 39 l-88 30 48 1 c26 1 47 5 47 9
0 5 -27 20 -61 33 -34 13 -62 29 -62 34 -1 6 11 16 26 23 38 18 28 28 -80 82
-87 44 -88 45 -53 50 l35 5 -55 42 c-115 87 -177 107 -373 122 -124 9 -165 22
-221 66 -31 23 -10 32 87 37 118 6 129 19 46 56 -35 16 -95 39 -134 52 -74 24
-105 44 -105 68 0 9 7 13 20 9 30 -8 24 11 -17 52 -49 49 -60 82 -57 176 1 65
5 81 20 91 17 11 30 4 99 -48 113 -86 288 -199 370 -240 151 -75 391 -136 740
-189 135 -20 280 -55 324 -78 11 -7 128 -83 258 -170 520 -346 1464 -971 1469
-971 2 0 4 1301 4 2890 l0 2890 -3480 0 -3480 0 0 -587z m3532 -745 c49 -27
81 -84 157 -278 149 -381 202 -709 169 -1045 l-13 -130 -55 3 c-38 3 -71 13
-106 33 -58 33 -109 37 -156 13 -29 -15 -34 -15 -66 0 -65 31 -111 31 -174 -2
-32 -16 -60 -27 -63 -24 -3 3 -5 65 -5 138 0 151 4 172 96 542 61 243 69 292
46 292 -5 0 -40 -62 -78 -137 -67 -135 -137 -239 -191 -289 -16 -13 -129 -76
-253 -139 -336 -170 -398 -214 -452 -320 -17 -32 -41 -76 -55 -97 -72 -115
-205 -101 -328 35 -56 61 -65 67 -152 96 -181 60 -253 111 -268 187 -5 27 -20
49 -56 82 -35 31 -49 51 -47 66 5 38 42 30 134 -30 105 -69 171 -89 337 -104
165 -15 241 -4 316 46 31 21 173 155 316 299 143 144 330 328 416 411 105 100
170 172 201 220 56 88 108 140 151 153 48 15 132 6 179 -21z m825 -580 c24
-31 35 -88 23 -119 -15 -35 -20 -36 -54 -4 -29 27 -31 40 -14 96 11 40 28 49
45 27z m-89 -153 c14 -31 16 -125 3 -125 -30 0 -50 72 -35 128 8 29 18 28 32
-3z m152 -54 c0 -43 -12 -71 -32 -71 -12 0 -10 88 3 111 16 30 29 13 29 -40z
m-216 4 c17 -64 -5 -107 -43 -83 -23 14 -29 74 -11 109 9 16 14 17 30 7 10 -7
21 -21 24 -33z m141 15 c16 -30 20 -95 7 -103 -4 -3 -17 3 -30 13 -17 14 -22
29 -22 62 0 66 19 78 45 28z m124 -156 c1 -23 -6 -36 -24 -48 -24 -16 -24 -16
-30 22 -4 20 -9 44 -11 53 -3 10 7 26 23 39 l28 22 6 -29 c4 -15 7 -42 8 -59z
m-209 -43 c-5 -10 -16 -23 -24 -30 -12 -10 -16 -7 -25 25 -8 29 -7 45 5 73
l16 36 19 -43 c13 -30 16 -49 9 -61z m-91 55 c18 -22 10 -97 -12 -110 -36 -22
-63 56 -37 105 13 23 33 25 49 5z m155 -58 c6 -61 2 -70 -20 -40 -14 18 -18
69 -8 97 10 26 21 4 28 -57z m64 10 c11 -41 9 -58 -7 -58 -14 0 -33 57 -26 79
10 32 22 25 33 -21z m82 -84 c0 -37 -5 -51 -29 -75 -40 -39 -51 -37 -51 13 0
35 6 46 38 75 20 18 38 33 40 33 1 0 2 -21 2 -46z m-236 -81 c6 -18 2 -24 -18
-29 -61 -15 -90 54 -43 104 l22 24 16 -39 c9 -21 20 -48 23 -60z m56 35 l-1
-63 -19 35 c-22 41 -25 61 -8 78 22 22 28 12 28 -50z m1234 43 c13 -20 -10
-43 -89 -96 -85 -56 -290 -263 -350 -353 -27 -40 -28 -46 -22 -125 7 -87 13
-113 101 -390 57 -180 98 -346 155 -627 28 -135 39 -169 86 -262 30 -60 57
-123 61 -142 9 -51 -19 -125 -64 -168 -72 -69 -92 -71 -243 -29 -57 16 -180
41 -274 56 -296 45 -540 105 -670 164 -96 44 -359 216 -454 297 -2 2 30 36 70
76 84 82 122 146 143 238 8 35 21 67 28 72 19 12 39 5 236 -76 201 -83 246
-95 260 -70 8 15 12 15 39 1 58 -31 290 -210 409 -318 105 -95 121 -65 30 55
-70 92 -113 169 -140 252 -14 43 -16 95 -14 370 3 384 -2 412 -88 544 -68 105
-82 146 -63 186 15 30 19 32 174 64 55 11 67 19 140 90 159 153 231 190 334
169 51 -11 60 -10 96 10 41 22 99 28 109 12z m-1154 -44 c0 -38 -22 -73 -38
-63 -16 9 -15 69 0 84 22 22 38 13 38 -21z m1 -125 c-6 -11 -26 -33 -45 -49
-31 -26 -34 -34 -41 -103 -10 -108 -61 -220 -79 -173 -18 47 -19 145 -1 204
18 59 18 60 -3 102 l-21 42 92 5 c50 3 96 2 100 -1 5 -4 4 -16 -2 -27z m125
-175 c-37 -85 -100 -171 -195 -267 -96 -97 -142 -121 -194 -101 -16 6 -27 15
-25 20 2 5 53 52 113 104 61 52 157 144 215 204 58 61 106 107 108 103 2 -4
-8 -32 -22 -63z m-1050 -62 c14 -14 24 -33 22 -43 -4 -17 -8 -18 -89 -6 -34 6
-38 3 -89 -63 -61 -78 -132 -148 -174 -170 -27 -14 -30 -13 -50 7 l-21 22 50
41 c28 23 93 85 145 139 92 94 98 98 138 98 33 0 49 -6 68 -25z m212 3 c7 -7
12 -20 12 -30 0 -14 -8 -18 -40 -18 -49 0 -79 -28 -100 -89 -7 -22 -26 -56
-42 -75 -27 -33 -34 -36 -80 -36 l-51 0 39 43 c22 23 50 60 64 82 33 56 68 97
99 117 30 21 82 23 99 6z m157 -44 c44 -21 67 -70 63 -136 -2 -28 -8 -53 -14
-55 -13 -4 -34 47 -34 82 0 33 -30 53 -85 57 -42 2 -50 6 -50 23 0 20 37 45
68 45 11 0 34 -7 52 -16z m364 -79 c1 -23 -11 -40 -55 -82 -31 -29 -60 -51
-65 -47 -16 9 -10 50 11 69 10 9 36 42 57 72 40 58 51 56 52 -12z m-989 37 c0
-4 -30 -27 -66 -52 -80 -54 -104 -83 -104 -124 0 -47 31 -76 83 -76 29 -1 51
-8 72 -25 16 -13 27 -27 24 -30 -3 -3 -33 -8 -66 -11 -72 -8 -125 13 -154 60
-63 103 47 261 184 265 15 1 27 -2 27 -7z m468 -10 c9 -11 25 -33 35 -51 12
-22 33 -39 66 -53 29 -13 54 -31 60 -45 15 -32 15 -30 -21 -64 l-33 -29 -10
37 c-13 45 -42 63 -105 63 -40 0 -110 29 -110 46 0 5 19 45 25 52 2 2 15 -4
29 -14 34 -21 41 -14 27 27 -6 18 -11 36 -11 40 0 16 30 9 48 -9z m-241 -9
c10 -24 -32 -53 -78 -53 -43 0 -51 16 -21 42 35 31 89 37 99 11z m536 -54 c10
-36 5 -175 -7 -186 -16 -16 -27 20 -32 110 -3 53 -3 101 1 107 12 19 29 5 38
-31z m-593 -30 c0 -6 -14 -24 -31 -40 -37 -35 -89 -40 -89 -10 0 22 19 39 57
51 40 12 63 12 63 -1z m-855 -49 c251 -12 315 -26 315 -66 0 -20 -5 -24 -28
-24 -15 0 -43 5 -62 11 -19 6 -126 14 -237 18 -184 5 -204 8 -230 27 -15 12
-30 29 -31 39 -3 15 1 17 25 11 15 -3 127 -11 248 -16z m1525 -91 c0 -23 7
-43 20 -54 11 -10 20 -24 20 -32 0 -22 -49 -15 -75 11 -24 24 -24 35 2 146 l6
25 13 -30 c7 -16 13 -46 14 -66z m-822 59 c-6 -16 -36 -34 -44 -25 -9 9 15 37
33 37 8 0 13 -5 11 -12z m490 -13 c17 -8 32 -18 32 -24 0 -15 -37 -23 -71 -16
-24 5 -36 2 -54 -15 -26 -24 -44 -19 -79 19 -23 26 -14 39 36 51 38 10 89 4
136 -15z m-780 -2 c23 -46 22 -84 -3 -117 -14 -18 -25 -39 -25 -46 0 -9 -3
-11 -10 -4 -5 5 -13 38 -16 72 -5 48 -3 67 10 87 19 29 32 32 44 8z m982 2 c0
-16 -32 -64 -63 -93 -31 -30 -42 -34 -108 -39 -58 -4 -78 -1 -94 11 -19 14
-15 15 50 16 81 0 109 12 160 69 34 37 55 51 55 36z m-419 -46 c30 -22 84 -64
122 -92 37 -29 63 -53 57 -55 -23 -8 -85 23 -148 74 -107 86 -119 90 -208 63
-57 -17 -78 -19 -86 -11 -9 9 -9 15 -1 23 18 18 101 38 159 38 46 1 58 -4 105
-40z m-1487 2 c16 -26 -114 -73 -149 -54 -13 8 -13 11 0 30 8 12 25 24 38 26
41 8 106 7 111 -2z m97 -32 c9 -17 4 -22 -33 -39 -24 -11 -49 -20 -55 -20 -24
0 -13 38 17 64 33 27 54 25 71 -5z m93 16 c36 -19 54 -19 100 0 27 12 65 15
144 13 l107 -3 -28 -19 c-19 -13 -54 -21 -101 -25 -81 -7 -135 -36 -185 -98
-29 -37 -41 -41 -41 -15 0 14 -20 65 -57 150 -7 17 25 15 61 -3z m518 -6 c20
-11 20 -11 -7 -39 -18 -19 -53 -37 -99 -50 -39 -12 -92 -33 -119 -47 -27 -13
-53 -23 -58 -21 -17 6 83 109 135 138 54 31 111 39 148 19z m732 -38 c16 -18
15 -19 -36 -39 -29 -12 -82 -26 -118 -32 -91 -15 -110 -25 -148 -76 -18 -24
-37 -44 -42 -44 -15 0 -12 57 4 89 18 35 50 49 147 66 48 8 89 22 105 34 33
26 66 27 88 2z m508 -16 c12 -16 9 -55 -4 -55 -32 0 -63 62 -41 83 6 7 31 -9
45 -28z m262 6 c49 -34 112 -113 149 -186 47 -94 130 -405 113 -422 -3 -4 -31
1 -61 11 -54 17 -54 17 -60 64 -17 121 -87 312 -115 312 -7 0 -10 -3 -8 -7 65
-130 88 -195 103 -297 l7 -46 -43 18 c-41 18 -44 22 -51 68 -16 110 -102 304
-135 304 -19 0 -17 142 2 180 20 38 44 38 99 1z m-2374 -23 c0 -3 -14 -18 -31
-32 -38 -32 -99 -37 -99 -8 0 25 19 48 54 66 26 13 31 13 52 -2 13 -9 24 -20
24 -24z m985 2 c8 -16 15 -47 15 -68 0 -34 -6 -45 -41 -77 -55 -50 -109 -71
-168 -66 -21 2 -7 53 32 114 36 55 111 127 134 127 7 0 19 -13 28 -30z m-845
5 c0 -18 -98 -64 -119 -57 -23 8 58 72 92 72 17 0 27 -5 27 -15z m1080 -37 c0
-5 -5 -18 -11 -30 -11 -20 -11 -20 -36 4 -58 54 -53 91 8 56 21 -12 39 -26 39
-30z m820 11 c0 -20 -24 -26 -35 -9 -4 6 -4 17 -1 25 7 20 36 7 36 -16z
m-1737 15 c9 -9 -90 -84 -112 -84 -22 0 -34 35 -17 49 33 27 114 49 129 35z
m1367 -10 c26 -30 96 -63 162 -75 60 -11 72 -17 118 -64 60 -61 70 -92 65
-193 -7 -146 -66 -276 -173 -385 -59 -59 -157 -117 -199 -117 -44 0 -137 54
-198 115 -108 108 -165 250 -165 412 0 108 9 143 54 197 33 41 38 43 118 55
49 8 105 24 138 41 68 34 65 33 80 14z m-550 -59 c0 -19 4 -45 10 -59 11 -30
65 -66 98 -66 17 0 22 -6 22 -26 0 -24 -3 -25 -27 -19 -34 8 -88 48 -109 80
-28 43 -31 147 -4 130 5 -3 10 -21 10 -40z m868 -9 c17 -26 32 -55 32 -62 0
-21 -23 -17 -44 9 -10 12 -37 41 -60 65 l-41 43 40 -3 c35 -3 44 -9 73 -52z
m211 28 c65 -83 -21 -219 -113 -180 -42 17 -50 30 -35 54 9 15 9 30 1 63 -13
53 -3 68 32 46 30 -20 41 -50 27 -76 -25 -45 -1 -69 34 -35 13 13 15 29 9 85
-6 59 -4 69 9 69 9 0 25 -12 36 -26z m-2069 -11 c0 -10 -16 -31 -35 -46 -28
-22 -39 -26 -49 -17 -19 15 -9 43 22 63 35 22 62 22 62 0z m185 -24 c5 -24 2
-36 -16 -55 -12 -13 -33 -24 -46 -24 -20 0 -23 5 -23 34 0 27 6 38 33 55 42
27 44 27 52 -10z m-446 2 l24 -19 -28 -26 c-35 -33 -85 -36 -85 -6 0 18 45 69
60 69 3 1 16 -8 29 -18z m141 -16 c0 -24 -3 -26 -41 -23 -70 4 -62 48 9 48 28
0 32 -3 32 -25z m1176 -2 c22 -29 18 -49 -6 -28 -19 17 -27 45 -14 45 4 0 13
-8 20 -17z m-996 -22 c0 -22 -58 -71 -83 -71 -25 0 -21 48 6 71 30 25 77 25
77 0z m863 -3 c2 -7 -2 -20 -9 -28 -21 -25 -60 -137 -79 -231 -17 -82 -20 -87
-51 -103 l-34 -16 0 28 c0 52 29 149 69 232 52 106 92 151 104 118z m-1098
-17 c3 -6 -5 -19 -17 -30 -25 -24 -78 -29 -78 -7 0 32 79 62 95 37z m105 -25
c0 -20 -57 -59 -75 -52 -18 6 -19 20 -5 47 13 23 80 28 80 5z m1020 -76 c-12
-23 -30 -76 -41 -118 -19 -73 -30 -92 -57 -92 -14 0 -13 6 19 130 11 41 29 96
41 122 l21 47 19 -24 c19 -24 18 -25 -2 -65z m1240 -10 c45 -90 86 -240 65
-240 -4 0 -19 7 -34 15 -24 12 -32 26 -46 87 -10 39 -31 96 -46 126 -27 51
-28 54 -12 79 16 24 17 24 31 7 7 -11 26 -44 42 -74z m-2101 69 l33 -12 -38
-38 c-47 -48 -84 -53 -84 -12 0 18 10 35 28 50 15 12 27 22 28 23 1 0 16 -5
33 -11z m-389 -23 c0 -15 -12 -33 -34 -49 -27 -21 -41 -25 -70 -20 -26 4 -36
11 -36 24 0 25 68 69 107 69 28 0 33 -4 33 -24z m1090 -52 c-34 -75 -60 -168
-60 -213 0 -25 -7 -36 -32 -51 -47 -29 -58 -26 -58 15 0 42 27 125 69 214 28
60 45 76 108 100 1 1 -11 -29 -27 -65z m-980 16 c0 -20 -57 -60 -84 -60 -29 0
-19 46 15 68 36 22 69 18 69 -8z m134 24 c30 -12 18 -41 -24 -58 -53 -21 -70
-20 -70 4 0 12 13 28 33 40 35 22 38 23 61 14z m1070 -23 c10 -11 29 -22 43
-26 14 -3 23 -11 19 -18 -3 -7 -17 -42 -32 -79 -18 -45 -31 -65 -41 -61 -19 7
-16 44 7 105 23 62 23 58 10 58 -12 0 -37 -58 -46 -108 -7 -39 -18 -52 -46
-52 -15 0 -15 6 3 71 21 77 45 129 58 129 4 0 16 -9 25 -19z m1094 -23 c21
-35 65 -179 57 -187 -3 -2 -16 1 -29 7 -16 7 -27 24 -35 57 -7 26 -21 65 -32
87 -16 31 -18 43 -8 54 17 21 25 18 47 -18z m-1398 17 c0 -3 -11 -27 -24 -53
-32 -64 -57 -145 -65 -206 -6 -54 -22 -69 -89 -82 -28 -6 -29 -4 -25 22 3 16
23 93 45 171 l41 142 41 4 c22 2 49 4 59 5 9 1 17 0 17 -3z m1344 -68 c13 -29
28 -65 31 -80 6 -23 4 -27 -14 -27 -12 0 -23 6 -25 13 -10 32 -37 104 -46 117
-18 29 -20 2 -1 -41 28 -66 34 -99 18 -99 -23 0 -97 119 -97 156 0 2 21 5 48
7 26 2 50 4 54 5 3 1 18 -22 32 -51z m-943 -57 c27 -15 24 -40 -5 -40 -31 0
-50 22 -34 38 15 15 15 15 39 2z m-609 -81 c-46 -177 -41 -192 56 -160 33 11
133 52 221 91 160 69 209 82 229 58 5 -7 15 -37 21 -67 12 -55 51 -143 77
-172 8 -8 14 -18 14 -21 0 -16 -228 -158 -343 -213 -122 -59 -507 -195 -634
-225 -61 -14 -86 -30 -75 -48 7 -10 29 -9 112 4 69 11 141 15 214 12 107 -4
114 -6 196 -47 47 -24 96 -51 110 -61 51 -36 266 -163 334 -197 123 -62 140
-66 307 -72 135 -5 160 -9 178 -25 28 -26 27 -70 -4 -152 -33 -87 -31 -132 7
-229 54 -138 42 -252 -36 -324 -14 -13 -30 -40 -36 -60 -22 -69 -33 -91 -46
-91 -24 0 -36 39 -29 92 14 101 8 139 -38 248 -125 296 -150 314 -518 379
-233 41 -299 59 -596 155 -219 72 -278 87 -365 95 -111 11 -146 19 -197 45
-62 33 -114 151 -97 222 8 32 418 459 549 571 135 117 237 190 324 234 42 21
78 37 80 35 2 -2 -5 -37 -15 -77z m1457 37 c9 -11 8 -18 -4 -30 -21 -21 -44
-20 -52 0 -4 11 1 22 12 30 24 17 30 17 44 0z m-807 -84 c4 -14 5 -28 3 -30
-2 -3 -26 6 -52 19 -41 20 -48 29 -51 57 l-3 32 48 -25 c32 -18 50 -35 55 -53z
m828 1 c0 -32 -17 -45 -64 -50 -50 -6 -51 -5 -35 31 8 17 22 26 43 29 17 2 37
5 44 5 6 1 12 -6 12 -15z m-846 -62 c31 -11 53 -27 57 -40 8 -20 5 -21 -41
-21 -39 0 -52 4 -64 22 -17 23 -21 58 -8 58 4 0 29 -8 56 -19z m829 -43 c-23
-40 -47 -46 -89 -23 -56 30 -30 48 74 53 l34 2 -19 -32z m-80 -54 c33 -8 34
-18 5 -38 -29 -21 -41 -20 -69 2 -29 24 -20 57 14 48 12 -4 34 -9 50 -12z
m-693 -4 c30 0 42 -5 51 -21 24 -46 -52 -54 -94 -11 -30 32 -35 47 -11 38 9
-3 33 -6 54 -6z m634 -61 l40 -11 -25 -19 c-29 -22 -72 -24 -89 -4 -10 12 -10
18 0 30 15 18 23 18 74 4z m-529 -33 c0 -30 -29 -43 -59 -26 -33 17 -33 26 2
38 37 14 57 10 57 -12z m461 -36 c27 -11 27 -11 6 -26 -28 -19 -74 -27 -92
-15 -12 8 -12 13 4 30 21 23 42 26 82 11z m-389 -33 c-5 -16 -38 -20 -57 -7
-13 9 -13 12 4 25 21 16 60 3 53 -18z m304 -78 c22 -45 24 -82 5 -98 -11 -9
-19 -7 -38 11 -30 29 -78 94 -78 106 0 4 15 15 33 24 38 18 49 12 78 -43z
m-236 42 c6 -10 -21 -41 -35 -41 -14 0 -22 19 -16 35 6 17 42 20 51 6z m94
-66 c32 -37 41 -75 17 -75 -8 0 -33 18 -56 41 -33 33 -39 44 -29 55 18 22 34
17 68 -21z m-96 -36 c13 -20 1 -68 -18 -76 -24 -8 -45 16 -45 52 0 17 3 35 7
39 12 11 45 2 56 -15z m83 -74 c20 -31 12 -75 -14 -75 -11 0 -23 13 -30 34
-22 60 11 91 44 41z m158 -46 c30 -35 32 -47 12 -55 -17 -6 -52 10 -83 39 -22
19 -31 66 -17 80 9 9 56 -26 88 -64z m-236 -1 c15 -15 16 -84 1 -93 -18 -12
-49 26 -49 60 0 45 21 60 48 33z m158 -69 c8 -17 14 -42 12 -57 -3 -25 -5 -24
-31 22 -15 28 -25 56 -22 64 7 18 22 7 41 -29z m-45 -70 c20 -42 62 -103 102
-148 37 -42 79 -98 92 -126 23 -46 46 -175 32 -175 -4 0 -25 37 -48 82 -41 82
-101 171 -133 197 -21 18 -78 115 -94 160 -11 32 -7 81 7 81 4 0 23 -32 42
-71z m174 18 c15 -23 47 -45 122 -82 56 -27 105 -54 110 -59 12 -13 -184 2
-221 18 -49 21 -86 70 -86 117 0 36 2 39 28 39 19 -1 33 -10 47 -33z m-253
-47 c16 -39 16 -40 -4 -40 -29 0 -58 28 -58 57 0 17 6 23 23 23 16 0 26 -10
39 -40z m403 -201 c134 -70 134 -70 193 -63 72 8 111 -10 136 -64 l17 -35
-107 5 -106 5 -13 -31 c-12 -29 -52 -74 -58 -65 -1 2 -10 20 -20 40 -17 32
-121 176 -137 189 -11 9 -60 77 -60 83 0 15 28 4 155 -64z m430 -114 c34 -33
31 -45 -9 -45 -27 0 -39 7 -55 29 -27 38 -27 41 9 41 19 0 40 -9 55 -25z m119
-105 l31 -30 -34 0 c-36 0 -91 33 -91 55 0 25 61 9 94 -25z m-287 8 c31 -29
29 -48 -5 -48 -19 0 -39 11 -62 35 l-34 35 39 0 c26 0 46 -7 62 -22z m138 6
c36 -24 31 -34 -18 -34 -33 0 -49 6 -67 25 l-23 25 42 0 c23 0 53 -7 66 -16z
m-226 -51 c17 -16 31 -39 33 -53 3 -22 0 -25 -27 -22 -16 2 -42 15 -58 30 -25
26 -26 29 -11 50 20 28 27 28 63 -5z m225 -24 c35 -27 34 -49 -2 -49 -17 0
-38 10 -51 24 -41 44 3 64 53 25z m159 -3 c24 -18 22 -46 -3 -46 -19 0 -100
45 -100 55 0 11 86 3 103 -9z m-251 -23 c24 -21 25 -73 1 -73 -50 1 -91 90
-41 90 12 0 30 -7 40 -17z m355 -25 c31 -29 31 -62 1 -53 -40 12 -68 35 -68
55 0 27 37 26 67 -2z m-144 -16 c34 -36 35 -62 3 -62 -27 0 -66 42 -66 71 0
28 32 23 63 -9z m-254 -48 c33 -37 36 -57 8 -62 -25 -5 -87 49 -87 76 0 36 42
29 79 -14z m194 -2 c34 -35 36 -72 5 -72 -29 0 -78 48 -78 77 0 33 39 30 73
-5z m197 -18 c44 -40 51 -64 20 -64 -35 0 -100 50 -100 76 0 36 33 31 80 -12z
m-280 -6 c11 -18 20 -39 20 -45 0 -24 -36 -13 -58 17 -26 35 -27 40 -7 40 8 0
15 5 15 10 0 18 10 11 30 -22z m203 -36 c32 -34 34 -52 6 -52 -35 0 -79 32
-79 57 0 33 39 30 73 -5z"/>
<path d="M3230 3529 c-53 -22 -89 -76 -60 -94 6 -4 10 5 10 20 0 53 117 86
180 50 29 -17 40 -18 40 -6 0 14 -76 41 -113 40 -17 0 -43 -5 -57 -10z"/>
<path d="M3578 3527 c-61 -28 -68 -42 -68 -143 0 -76 4 -100 20 -126 27 -45
26 -52 -16 -67 -29 -11 -45 -11 -81 -1 -41 12 -44 15 -38 39 6 25 6 25 -12 8
-22 -22 -8 -50 28 -55 13 -2 28 -8 33 -13 15 -14 38 -11 84 11 48 23 50 32 20
80 -25 41 -38 173 -20 207 26 48 133 68 193 37 32 -16 55 -11 29 7 -45 28
-126 36 -172 16z"/>
<path d="M3238 3443 c-10 -2 -18 -10 -18 -18 0 -15 59 -45 90 -45 20 0 80 26
80 35 0 2 -13 11 -30 20 -27 14 -84 18 -122 8z"/>
<path d="M3616 3436 c-54 -15 -55 -31 -3 -51 40 -15 46 -15 85 0 23 10 42 21
42 25 0 25 -74 40 -124 26z"/>
<path d="M3536 3359 c11 -18 86 -49 119 -49 29 0 102 36 93 46 -3 2 -26 -5
-52 -16 l-47 -21 -56 25 c-63 29 -67 30 -57 15z"/>
<path d="M3346 3343 c-19 -10 -44 -14 -73 -10 -46 5 -59 -8 -18 -19 35 -9 89
3 117 26 28 23 14 25 -26 3z"/>
<path d="M3612 3107 c-10 -12 -38 -15 -137 -15 -69 0 -128 4 -131 9 -7 12 -24
12 -24 0 0 -26 124 -44 224 -31 70 9 91 19 84 40 -3 9 -7 8 -16 -3z"/>
<path d="M3396 3018 c11 -17 80 -27 117 -17 20 5 37 13 37 17 0 4 -36 7 -79 7
-44 0 -77 -3 -75 -7z"/>
</g>
</svg>
