<?xml version="1.0" standalone="no"?>
<!DOCTYPE svg PUBLIC "-//W3C//DTD SVG 20010904//EN"
 "http://www.w3.org/TR/2001/REC-SVG-20010904/DTD/svg10.dtd">
<svg version="1.0" xmlns="http://www.w3.org/2000/svg"
 width="300.000000pt" height="390.000000pt" viewBox="0 0 300.000000 390.000000"
 preserveAspectRatio="xMidYMid meet">

<g transform="translate(0.000000,390.000000) scale(0.100000,-0.100000)"
fill="#000000" stroke="none">
<path d="M904 3888 c-5 -8 -1 -9 11 -4 15 5 16 4 5 -9 -7 -8 -16 -12 -21 -10
-4 3 -16 -7 -25 -22 -10 -15 -22 -32 -28 -38 -20 -18 -76 -135 -76 -158 0 -12
-5 -29 -10 -37 -9 -15 -13 -16 -45 -19 -8 0 -15 -8 -15 -18 0 -9 -3 -14 -6
-10 -3 3 -15 -3 -27 -14 -11 -10 -27 -19 -34 -19 -7 0 -13 -7 -13 -15 0 -8
-15 -21 -33 -29 -39 -16 -68 -69 -48 -89 13 -13 15 -41 2 -33 -9 6 -44 -28
-36 -36 3 -2 -13 -15 -35 -27 -22 -12 -40 -28 -40 -34 0 -7 -7 -24 -14 -39 -8
-16 -11 -28 -5 -28 5 0 9 -11 9 -25 0 -28 -9 -31 -30 -12 -12 10 -12 9 -2 -4
6 -9 10 -19 7 -22 -3 -4 -2 -5 1 -2 11 8 44 -68 38 -87 -3 -10 -9 -16 -12 -14
-4 2 -7 -8 -8 -22 0 -15 -4 -44 -8 -64 -5 -21 -5 -46 -1 -55 5 -10 10 -29 12
-42 2 -14 8 -32 14 -42 5 -10 9 -29 9 -43 0 -14 7 -29 15 -34 13 -7 17 -36 21
-143 3 -74 5 -143 4 -154 -7 -141 -7 -227 1 -369 8 -144 12 -174 31 -208 24
-42 55 -56 86 -39 18 10 21 5 35 -47 35 -130 77 -261 101 -315 l26 -57 -34
-45 c-19 -24 -57 -93 -86 -152 -28 -59 -57 -119 -64 -133 -8 -17 -33 -34 -76
-51 -36 -15 -137 -56 -225 -92 -88 -35 -186 -76 -217 -90 l-58 -26 0 -405 0
-406 643 1 642 1 -47 20 c-27 11 -48 27 -48 35 0 10 -6 12 -20 8 -13 -4 -22
-1 -26 9 -3 9 -10 14 -14 11 -22 -13 -171 167 -170 205 1 26 55 81 73 74 10
-3 31 -35 47 -70 33 -68 44 -78 101 -88 35 -6 37 -5 43 25 3 17 6 48 6 68 0
44 9 58 44 77 19 9 33 11 45 4 19 -10 41 -7 116 17 49 15 51 17 54 57 4 54 3
65 -2 101 -3 17 -1 35 5 42 5 6 10 27 10 45 1 20 9 40 21 51 20 17 20 18 1 32
-16 13 -16 14 -1 9 13 -5 16 -2 11 10 -7 19 4 21 20 3 6 -7 10 -10 9 -8 -2 2
3 11 10 19 9 12 9 16 0 19 -7 3 -13 9 -13 15 0 6 7 8 15 5 8 -4 17 -2 20 3 3
5 12 7 19 4 8 -3 18 7 26 26 15 35 50 61 50 36 0 -10 6 -13 15 -10 8 4 15 10
15 16 0 5 -5 6 -11 2 -7 -4 -9 1 -7 12 2 12 11 18 22 16 10 -2 15 1 12 7 -4 5
-2 12 4 16 5 3 10 11 10 16 0 6 -4 7 -10 4 -5 -3 -10 -2 -10 3 0 6 7 12 15 16
8 3 20 17 27 31 7 16 17 24 25 20 10 -3 13 1 8 14 -3 10 1 24 10 31 22 18 109
138 138 191 44 80 52 94 58 99 4 3 17 28 30 55 l24 50 3 -160 c4 -219 0 -234
-134 -523 -19 -39 -54 -100 -79 -134 -25 -34 -45 -66 -45 -70 0 -4 -9 -18 -20
-30 -43 -48 -50 -58 -50 -67 0 -13 -50 -71 -61 -71 -14 0 -91 -37 -109 -53
-23 -19 -40 -54 -40 -81 0 -14 -4 -27 -10 -31 -5 -3 -7 -12 -3 -20 3 -8 0 -15
-7 -15 -7 0 -10 -6 -7 -14 6 -14 -35 -56 -118 -121 -27 -22 -56 -45 -63 -52
-11 -11 148 -13 832 -13 l846 0 -2 426 -3 426 -140 57 c-243 99 -317 128 -422
160 -60 18 -111 40 -123 53 -11 12 -34 55 -51 97 -43 103 -93 188 -140 237
-36 37 -39 43 -29 68 13 36 13 41 -5 26 -8 -7 -12 -16 -9 -21 3 -5 0 -9 -6 -9
-6 0 -8 -4 -5 -10 9 -15 -36 -110 -52 -110 -8 0 -11 -5 -7 -11 7 -12 -15 -60
-34 -72 -7 -5 -10 -12 -7 -18 4 -5 1 -9 -4 -9 -6 0 -11 -7 -11 -15 0 -8 -7
-15 -16 -15 -9 0 -12 -5 -8 -13 6 -9 4 -9 -7 1 -7 6 -18 12 -24 12 -5 0 -3 -5
5 -10 11 -7 11 -10 2 -10 -7 0 -10 -5 -7 -11 9 -13 -68 -89 -90 -89 -9 0 -13
-4 -10 -10 3 -6 -1 -7 -9 -4 -9 3 -22 -1 -31 -9 -17 -17 -20 -31 -5 -22 5 3
10 2 10 -3 0 -16 -27 -21 -39 -9 -9 9 -10 3 -5 -20 5 -25 3 -31 -10 -29 -8 1
-19 6 -23 11 -4 4 -2 5 5 1 6 -4 12 -2 12 4 0 7 -6 10 -12 7 -7 -2 -12 -11
-12 -20 2 -18 -35 -31 -37 -14 -1 7 -2 19 -3 27 -1 17 -46 27 -46 11 0 -6 -5
-11 -12 -11 -6 0 -20 -7 -30 -16 -13 -13 -21 -14 -32 -5 -16 14 -49 4 -39 -13
3 -6 2 -7 -3 -3 -5 5 -9 14 -9 20 0 7 -5 12 -12 12 -6 0 -15 3 -19 8 -4 4 0 7
9 7 9 0 17 4 17 10 0 13 -32 0 -46 -18 -9 -13 -12 -13 -17 2 -4 9 -2 16 2 16
14 0 23 32 11 44 -7 7 -14 6 -22 -3 -11 -10 -9 -11 6 -5 13 5 17 4 12 -4 -10
-16 -34 -15 -51 2 -19 19 -15 57 8 84 l20 22 -24 1 c-22 0 -23 1 -4 9 19 8 18
9 -4 9 -22 1 -23 2 -9 23 12 18 26 24 69 26 86 4 101 9 89 32 -14 26 -13 33 6
26 14 -5 15 -4 4 9 -11 13 -10 14 4 9 13 -5 16 0 16 24 0 33 -14 42 -63 42
-52 0 -75 10 -89 39 -13 27 -18 31 -38 31 -5 0 -10 7 -10 15 0 23 46 38 70 23
15 -10 23 -9 39 6 20 18 41 19 230 13 44 -1 66 2 68 11 3 8 -7 12 -30 12 -19
0 -59 8 -89 19 -140 49 -167 55 -192 42 -19 -11 -28 -10 -53 2 -16 9 -35 22
-42 31 -10 12 -8 17 9 26 19 10 24 8 37 -9 22 -33 46 -26 65 19 15 36 20 40
48 38 21 -2 29 -6 25 -16 -7 -18 34 -51 64 -52 l24 0 -22 24 c-13 14 -28 23
-35 20 -6 -2 -17 10 -25 28 -8 18 -19 37 -25 41 -8 6 -7 10 2 14 10 4 9 8 -5
19 -17 13 -17 13 2 14 20 1 20 1 1 15 -11 8 -25 15 -30 15 -6 0 -5 -4 3 -9 24
-15 -3 -19 -37 -4 -28 11 -32 16 -22 28 18 22 76 19 93 -5 13 -19 13 -19 45 1
28 16 31 22 22 39 -15 27 -55 36 -83 17 -28 -18 -39 -13 -60 30 -9 17 -27 35
-39 39 -13 4 -36 21 -51 38 -26 27 -28 34 -18 61 26 74 40 270 22 318 -6 15
-6 53 0 98 5 41 7 85 4 99 -8 32 -84 90 -123 93 -16 1 -28 5 -26 9 3 4 -7 10
-21 14 -14 3 -25 9 -25 13 0 4 -8 7 -17 8 -107 11 -151 14 -166 14 -9 0 -15 5
-11 10 3 5 -4 26 -15 45 -23 39 -27 54 -10 37 16 -16 43 12 34 34 -3 10 -3 14
1 10 12 -12 54 34 54 59 0 12 7 25 16 28 12 4 14 13 10 32 -4 16 -3 23 3 20
21 -13 37 57 19 81 -5 6 -13 25 -18 42 -8 28 -6 31 13 31 15 0 18 3 9 8 -14 9
-6 42 10 42 5 0 19 -5 30 -11 18 -10 20 -9 15 5 -4 10 -1 16 8 16 8 0 19 9 25
20 6 11 15 20 21 20 5 0 27 11 50 25 22 14 44 23 49 20 4 -3 10 -1 12 4 5 14
43 18 40 4 -3 -20 14 -15 45 11 25 21 37 24 84 20 34 -3 58 -10 66 -21 9 -11
26 -16 59 -15 25 1 50 5 55 8 22 13 101 -10 141 -42 23 -18 44 -31 46 -29 10
10 73 -23 120 -63 72 -62 106 -121 126 -222 3 -14 12 -54 21 -90 9 -36 19 -80
21 -99 3 -19 7 -38 11 -44 3 -6 7 -20 8 -32 2 -12 8 -46 13 -76 6 -30 14 -83
17 -119 3 -36 13 -112 21 -170 10 -65 13 -137 10 -190 -3 -47 -3 -78 0 -70 3
8 12 29 19 45 7 17 15 74 17 127 2 64 7 98 14 98 14 0 24 52 30 142 2 37 13
93 24 125 26 74 25 107 -4 170 -25 53 -24 63 3 63 9 0 24 6 33 14 15 11 15 16
3 39 -13 25 -11 31 8 28 10 -1 9 7 -3 30 -6 11 -7 18 -3 17 10 -4 12 12 6 30
-3 7 -3 26 -1 42 3 16 0 31 -5 33 -6 2 -2 16 9 33 15 23 15 26 2 16 -15 -12
-16 -8 -15 41 2 42 -1 54 -13 53 -8 -1 -23 20 -35 49 -11 28 -24 57 -30 65
-19 30 -16 50 8 51 21 1 21 1 -3 8 -23 7 -23 8 -5 13 11 3 8 4 -7 2 -19 -2
-35 4 -52 21 -13 13 -27 21 -30 18 -3 -4 -6 1 -6 9 0 9 -10 18 -23 22 -40 10
-77 52 -77 86 0 72 -54 118 -127 106 -33 -5 -43 -2 -73 25 -19 16 -47 33 -63
36 -16 3 -34 15 -40 25 -15 25 -83 58 -119 58 -15 0 -28 4 -28 10 0 5 -6 7
-13 4 -7 -2 -26 2 -42 10 -19 10 -34 12 -45 6 -11 -6 -22 -5 -30 3 -10 9 -11
9 -6 0 12 -21 -8 -15 -24 7 -10 14 -25 19 -57 18 -25 0 -40 -5 -37 -10 4 -6
-3 -5 -15 1 -15 8 -27 9 -39 2 -16 -10 -16 -10 1 -11 9 0 17 -4 17 -10 0 -13
-47 -13 -55 0 -5 7 -11 8 -19 1 -7 -6 -18 -6 -25 -1 -8 4 -19 6 -26 4 -6 -3
-17 2 -24 10 -10 11 -18 13 -31 6 -13 -7 -21 -7 -25 0 -9 14 -35 12 -32 -2 1
-8 -9 -13 -25 -13 -15 1 -26 -2 -25 -5 1 -5 -100 -110 -107 -110 -9 0 -13 39
-5 44 5 2 4 3 -3 2 -16 -3 -19 -56 -4 -56 8 0 8 -2 0 -8 -6 -4 -14 -16 -17
-26 -4 -10 -10 -17 -12 -14 -9 9 -15 89 -7 84 5 -3 8 7 6 23 -3 24 0 28 14 24
13 -3 22 6 34 29 15 32 15 34 -3 35 -10 1 -22 -3 -25 -9z m473 -24 c-3 -3 -12
-4 -19 -1 -8 3 -5 6 6 6 11 1 17 -2 13 -5z m-463 -16 c-3 -4 -9 -8 -15 -8 -5
0 -9 4 -9 8 0 5 7 9 15 9 8 0 12 -4 9 -9z m274 -18 c-15 -24 -38 -34 -38 -17
0 8 -3 8 -9 -2 -6 -9 -18 -11 -36 -7 -52 13 -11 43 63 45 30 1 31 -1 20 -19z
m-149 -22 c-9 -16 -13 -18 -20 -7 -4 8 -3 19 3 26 16 20 30 5 17 -19z m-177
-109 c4 -19 3 -35 -3 -37 -5 -2 -7 -8 -4 -13 4 -5 -1 -6 -10 -2 -12 4 -13 8
-5 13 9 6 9 13 1 28 -15 28 -14 55 1 50 7 -3 16 -20 20 -39z m-38 -33 c-11
-27 -21 -17 -16 15 4 24 7 28 13 16 5 -8 6 -22 3 -31z m1176 -1 c7 -8 10 -21
6 -30 -3 -8 0 -14 6 -12 6 1 13 -4 15 -10 7 -18 -49 3 -77 29 -17 16 -19 22
-8 29 20 13 44 11 58 -6z m-1543 -417 c-3 -8 -6 -5 -6 6 -1 11 2 17 5 13 3 -3
4 -12 1 -19z m643 -790 c0 -7 -41 -28 -54 -28 -2 0 4 15 13 34 14 31 17 33 29
18 6 -8 12 -20 12 -24z m295 -608 c3 -5 1 -10 -4 -10 -6 0 -11 5 -11 10 0 6 2
10 4 10 3 0 8 -4 11 -10z m85 -51 c0 -11 -4 -17 -10 -14 -5 3 -10 13 -10 21 0
8 5 14 10 14 6 0 10 -9 10 -21z m85 -779 c3 -5 1 -10 -4 -10 -6 0 -11 5 -11
10 0 6 2 10 4 10 3 0 8 -4 11 -10z m65 -190 c0 -5 -4 -10 -10 -10 -5 0 -10 5
-10 10 0 6 5 10 10 10 6 0 10 -4 10 -10z"/>
<path d="M376 3193 c-6 -14 -5 -15 5 -6 7 7 10 15 7 18 -3 3 -9 -2 -12 -12z"/>
<path d="M1775 2730 c-33 -4 -85 -5 -116 -2 -44 3 -59 1 -73 -13 -12 -12 -20
-15 -25 -7 -9 15 -65 -13 -80 -41 -16 -30 0 -74 34 -89 25 -11 29 -18 25 -51
-1 -10 4 -25 10 -32 7 -8 10 -22 6 -31 -4 -12 -1 -14 14 -9 16 5 20 2 20 -14
0 -12 5 -21 11 -21 5 0 8 -4 4 -9 -8 -14 16 -61 32 -61 7 0 13 -4 13 -9 0 -4
27 -14 60 -21 52 -11 64 -11 95 4 19 9 35 23 35 31 0 8 4 15 10 15 5 0 12 11
16 25 5 21 9 23 21 14 11 -10 13 -10 11 1 -4 15 42 22 59 8 15 -12 47 -2 39
11 -4 5 0 11 6 14 10 3 11 9 1 26 -7 11 -13 27 -13 34 0 15 -66 87 -79 87 -5
0 -11 9 -14 19 -4 15 2 22 26 30 16 6 42 11 56 11 18 0 22 3 12 9 -11 7 -11 9
0 13 20 7 -24 28 -61 31 -17 1 -30 5 -30 10 0 4 -9 7 -20 7 -11 0 -20 5 -20
10 0 6 -6 9 -12 9 -7 -1 -40 -5 -73 -9z m110 -175 c27 -13 75 -50 75 -60 0 -2
-23 12 -51 31 -28 19 -57 34 -64 34 -8 0 -17 4 -20 10 -7 11 12 6 60 -15z m16
-81 c12 -14 10 -19 -14 -38 -15 -12 -27 -26 -27 -31 0 -6 -18 -11 -40 -12 -48
-3 -51 6 -10 29 17 9 35 29 42 43 13 29 30 32 49 9z m-286 -24 c3 -5 1 -10 -4
-10 -6 0 -11 5 -11 10 0 6 2 10 4 10 3 0 8 -4 11 -10z"/>
<path d="M2006 2641 c-4 -5 3 -7 14 -4 23 6 26 13 6 13 -8 0 -17 -4 -20 -9z"/>
<path d="M2018 2613 c7 -3 16 -2 19 1 4 3 -2 6 -13 5 -11 0 -14 -3 -6 -6z"/>
<path d="M2282 2378 c-20 -20 -13 -198 8 -198 8 0 23 104 24 169 1 37 -12 49
-32 29z"/>
<path d="M2184 2015 c4 -19 0 -25 -12 -25 -14 0 -15 -2 -2 -10 9 -6 17 -5 22
3 11 18 10 57 -2 57 -6 0 -8 -11 -6 -25z"/>
<path d="M2215 2030 c-3 -6 1 -7 9 -4 18 7 21 14 7 14 -6 0 -13 -4 -16 -10z"/>
<path d="M2140 1954 c0 -16 9 -18 28 -5 10 6 9 10 -7 14 -14 3 -21 0 -21 -9z"/>
<path d="M2177 1867 c-11 -29 -8 -44 9 -51 22 -8 30 0 17 16 -6 7 -13 22 -15
33 -3 19 -4 19 -11 2z"/>
<path d="M1540 1752 c0 -12 19 -26 26 -19 2 2 -2 10 -11 17 -9 8 -15 8 -15 2z"/>
<path d="M1667 1689 c-9 -5 -23 -7 -30 -3 -6 4 -3 -2 8 -13 16 -16 24 -18 38
-9 9 6 13 12 7 14 -6 2 -8 8 -4 13 7 11 4 11 -19 -2z"/>
<path d="M1610 1673 c0 -17 6 -23 23 -23 16 0 18 3 8 9 -7 5 -17 15 -22 22 -6
10 -9 8 -9 -8z"/>
<path d="M1727 1623 c-13 -12 -7 -22 8 -16 9 3 15 1 13 -5 -2 -5 0 -10 5 -11
4 -1 7 1 7 4 0 3 0 12 0 20 0 15 -21 21 -33 8z"/>
<path d="M1385 1479 c-9 -14 -2 -20 14 -10 8 6 9 11 3 15 -6 3 -14 1 -17 -5z"/>
<path d="M1369 1171 c-10 -9 -14 -23 -10 -34 6 -16 7 -16 22 1 9 10 13 25 10
34 -5 13 -8 13 -22 -1z"/>
<path d="M1810 1186 c0 -2 9 -6 20 -9 11 -3 18 -1 14 4 -5 9 -34 13 -34 5z"/>
<path d="M1696 1152 c-4 -7 -2 -12 4 -12 7 0 9 -8 5 -19 -5 -18 -3 -18 19 -8
18 9 22 15 14 24 -6 7 -14 11 -18 8 -5 -3 -10 0 -12 7 -3 9 -6 9 -12 0z"/>
</g>
</svg>
