<?xml version="1.0" standalone="no"?>
<!DOCTYPE svg PUBLIC "-//W3C//DTD SVG 20010904//EN"
 "http://www.w3.org/TR/2001/REC-SVG-20010904/DTD/svg10.dtd">
<svg version="1.0" xmlns="http://www.w3.org/2000/svg"
 width="200.000000pt" height="200.000000pt" viewBox="0 0 200.000000 200.000000"
 preserveAspectRatio="xMidYMid meet">

<g transform="translate(0.000000,200.000000) scale(0.100000,-0.100000)"
fill="#000000" stroke="none">
<path d="M0 1832 l0 -169 255 -168 c140 -93 253 -170 251 -172 -2 -2 -20 6
-40 18 -27 16 -40 19 -48 11 -19 -19 40 -92 92 -115 25 -11 58 -30 73 -43 33
-27 69 -31 87 -9 17 20 24 19 72 -12 l42 -28 -65 -6 -64 -6 65 -1 c36 -1 72
-7 80 -12 10 -7 -9 -8 -60 -4 -89 7 -103 10 -95 24 3 5 -1 10 -10 10 -13 0
-14 -4 -5 -20 12 -23 11 -24 -26 -10 -30 12 -133 2 -113 -11 9 -5 5 -10 -14
-14 -15 -4 -27 -10 -27 -14 1 -11 51 -43 58 -36 3 3 0 10 -7 14 -7 5 -10 14
-7 20 11 17 29 13 22 -4 -3 -8 0 -15 6 -15 6 0 3 -9 -7 -20 -18 -20 -18 -20
-36 1 -12 14 -24 19 -36 15 -14 -6 -15 -9 -4 -16 10 -6 4 -13 -25 -29 -40 -21
-39 -22 24 -25 9 -1 20 -5 23 -10 4 -4 16 -3 28 3 14 8 21 8 21 1 0 -8 6 -8
20 0 13 7 20 7 20 1 0 -20 69 25 81 52 11 27 46 54 56 44 2 -3 0 -14 -6 -25
-9 -17 -8 -19 9 -15 11 3 23 9 26 14 3 5 12 9 20 9 27 0 -21 -75 -58 -91 -18
-7 -84 -63 -147 -125 -99 -97 -112 -114 -106 -135 10 -37 52 -69 89 -69 18 0
66 -11 107 -26 41 -14 108 -32 149 -40 41 -8 88 -20 103 -26 33 -13 66 -72 76
-136 3 -25 11 -47 16 -49 15 -5 55 72 55 107 0 17 -5 40 -11 51 -7 14 -7 29 2
54 18 48 1 65 -65 65 -43 0 -63 7 -134 50 -46 27 -94 53 -108 56 -23 6 -18 10
43 33 37 15 86 39 107 53 35 24 41 25 61 12 22 -14 35 -57 35 -117 0 -20 6
-30 20 -34 11 -3 20 -11 20 -19 0 -7 6 -11 14 -8 10 4 25 -12 45 -48 23 -39
31 -47 31 -30 0 30 12 28 33 -7 23 -40 74 -81 91 -75 8 3 17 1 21 -5 3 -6 11
-11 16 -11 6 0 7 5 3 11 -5 8 -1 8 14 0 27 -14 45 -14 36 1 -4 7 -3 8 4 4 6
-4 23 -4 38 0 24 6 25 8 11 19 -9 7 -14 15 -10 18 3 4 -1 7 -10 7 -10 0 -14 6
-11 14 3 9 -3 17 -15 21 -12 3 -21 12 -21 18 0 20 -40 38 -103 47 -64 10 -102
30 -54 30 30 0 36 14 11 24 -25 9 -41 7 -24 -4 13 -8 13 -10 -2 -10 -30 0 -68
19 -68 35 0 8 5 15 10 15 6 0 10 -4 10 -9 0 -5 7 -11 14 -14 16 -6 12 16 -6
40 -5 6 -8 25 -6 42 l3 30 72 -49 c73 -49 88 -54 311 -99 36 -7 80 -29 140
-69 48 -33 160 -107 250 -165 l162 -106 0 829 0 830 -1000 0 -1000 0 0 -168z
m1011 -212 c15 0 64 -115 83 -195 10 -43 16 -99 14 -145 -3 -74 -3 -75 -28
-72 -14 2 -53 4 -87 5 -56 1 -63 4 -64 22 -2 43 3 83 22 159 11 43 18 80 16
82 -2 3 -19 -22 -38 -53 -31 -53 -43 -63 -127 -108 -70 -37 -101 -60 -121 -90
-33 -49 -58 -54 -94 -21 -16 14 -50 35 -77 47 -28 12 -50 27 -50 34 0 7 -7 18
-15 25 -8 7 -15 19 -15 27 0 11 8 9 32 -9 26 -18 50 -24 107 -27 l74 -3 165
166 c108 110 170 165 179 162 8 -3 19 -6 24 -6z m249 -196 c0 -8 -4 -14 -10
-14 -5 0 -10 9 -10 21 0 11 5 17 10 14 6 -3 10 -13 10 -21z m-33 -46 c-3 -7
-5 -2 -5 12 0 14 2 19 5 13 2 -7 2 -19 0 -25z m-17 7 c0 -8 -4 -15 -10 -15 -5
0 -10 7 -10 15 0 8 5 15 10 15 6 0 10 -7 10 -15z m37 -7 c-3 -8 -6 -5 -6 6 -1
11 2 17 5 13 3 -3 4 -12 1 -19z m32 -28 c0 -9 -4 -8 -9 5 -5 11 -9 27 -9 35 0
9 4 8 9 -5 5 -11 9 -27 9 -35z m-83 -17 c-10 -10 -19 5 -10 18 6 11 8 11 12 0
2 -7 1 -15 -2 -18z m44 8 c0 -4 -7 -8 -15 -8 -8 0 -15 6 -15 13 0 8 6 11 15 8
8 -4 15 -9 15 -13z m-34 -48 c-10 -10 -19 5 -10 18 6 11 8 11 12 0 2 -7 1 -15
-2 -18z m66 5 c-7 -7 -12 -8 -12 -2 0 14 12 26 19 19 2 -3 -1 -11 -7 -17z
m249 -47 c-39 -37 -71 -75 -71 -84 0 -8 9 -45 21 -82 11 -38 31 -114 44 -170
12 -56 30 -116 39 -133 21 -41 20 -65 -4 -87 -18 -16 -24 -16 -107 -1 -181 34
-221 47 -293 93 l-70 45 30 34 c16 19 30 43 30 53 0 29 10 31 64 9 28 -12 63
-22 78 -24 15 -1 57 -25 93 -53 35 -28 67 -51 70 -51 3 0 -7 19 -22 42 -26 38
-28 52 -33 162 -5 104 -9 127 -29 159 -28 45 -23 62 20 71 19 3 48 21 66 38
29 28 63 40 131 47 8 0 -18 -30 -57 -68z m-275 10 c-9 -10 -16 -29 -16 -44 0
-26 -19 -49 -21 -25 -7 78 -5 85 24 86 27 1 28 0 13 -17z m44 -50 c0 -15 -81
-101 -96 -101 -23 0 -16 11 39 61 57 53 57 53 57 40z m-302 -19 c2 -7 -2 -10
-11 -6 -8 3 -18 1 -22 -5 -3 -6 2 -11 12 -12 10 0 13 -3 6 -6 -7 -2 -13 -11
-13 -19 0 -8 -9 -13 -22 -13 -13 1 -31 -2 -40 -6 -28 -12 -21 1 25 44 42 40
57 46 65 23z m49 -3 c-10 -6 -22 -22 -27 -35 -5 -13 -17 -24 -26 -24 -14 0
-15 3 -3 18 32 42 43 52 58 52 13 -1 13 -2 -2 -11z m70 -29 c1 -14 0 -18 -3
-7 -3 9 -14 17 -25 17 -10 0 -19 5 -19 11 0 6 10 9 23 7 15 -2 23 -10 24 -28z
m-214 1 c-29 -24 -29 -49 -1 -60 13 -4 17 -10 11 -14 -17 -11 -42 3 -49 26 -5
15 1 27 20 44 15 13 30 23 34 23 4 -1 -3 -9 -15 -19z m200 -45 c-3 -4 -8 -4
-12 1 -3 6 -18 13 -33 17 -16 3 -28 11 -28 17 0 6 5 7 10 4 6 -3 10 1 10 10 0
12 7 9 29 -12 16 -15 26 -32 24 -37z m107 49 c0 -8 -9 -19 -21 -25 -20 -11
-20 -11 -4 14 20 30 25 32 25 11z m-50 -50 c4 3 10 -4 13 -15 3 -11 1 -20 -4
-20 -12 0 -40 56 -31 65 4 4 8 -3 10 -14 2 -12 7 -19 12 -16z m-314 -32 c-11
-11 -19 6 -11 24 8 17 8 17 12 0 3 -10 2 -21 -1 -24z m165 20 c13 -15 12 -15
-8 -4 -13 6 -35 9 -50 6 -23 -4 -24 -4 -8 4 30 15 51 13 66 -6z m50 6 c-16 -6
-28 -6 -35 1 -7 7 1 10 25 9 32 0 33 -1 10 -10z m54 -9 c-12 -11 -37 -21 -58
-22 -32 -3 -35 -5 -20 -15 9 -7 24 -13 34 -13 56 0 56 -115 -1 -175 -20 -22
-21 -23 -3 -27 10 -2 -4 -5 -32 -5 -43 -1 -54 3 -82 29 -18 17 -35 44 -38 60
-4 17 -13 28 -23 28 -14 0 -14 2 -3 9 9 6 14 26 14 55 0 54 3 56 112 62 52 3
84 9 94 19 9 8 18 15 20 15 3 0 -3 -9 -14 -20z m-545 -24 c-6 -26 -4 -33 5
-30 14 6 28 -22 19 -37 -9 -15 -26 -10 -20 7 3 8 2 13 -3 10 -12 -8 -21 18
-16 44 2 11 -1 20 -6 20 -6 0 -7 5 -4 10 3 6 12 10 20 10 10 0 11 -8 5 -34z
m154 22 c-3 -4 -16 -8 -28 -8 -13 0 -29 -7 -36 -15 -14 -17 -26 -13 -32 12 -4
15 3 18 48 19 29 0 51 -3 48 -8z m-119 -8 c-3 -5 -11 -10 -16 -10 -6 0 -7 5
-4 10 3 6 11 10 16 10 6 0 7 -4 4 -10z m185 5 c0 -5 -67 -35 -78 -35 -3 0 3 9
13 20 16 17 65 29 65 15z m30 -30 c0 -23 -24 -45 -49 -45 -17 0 -13 15 10 44
26 33 39 33 39 1z m414 6 c20 -22 56 -113 56 -141 0 -27 -30 -14 -31 14 -1 16
-2 17 -6 4 -2 -10 -9 -18 -14 -18 -5 0 -9 8 -9 18 0 14 -2 15 -10 2 -7 -12
-11 -10 -19 10 -8 22 -10 22 -11 5 -1 -16 -4 -14 -14 10 -15 36 -1 60 24 42
12 -9 13 -9 3 3 -17 19 -17 70 0 70 8 0 22 -8 31 -19z m-619 0 c-3 -5 -1 -12
5 -16 12 -7 4 -25 -12 -25 -5 0 -8 7 -4 15 3 10 -1 15 -12 15 -15 0 -15 2 -2
10 19 12 33 13 25 1z m265 -2 c0 -5 -4 -7 -10 -4 -5 3 -10 -2 -10 -11 0 -10
-3 -15 -6 -11 -9 9 3 37 16 37 5 0 10 -5 10 -11z m225 -10 c11 -17 -1 -21 -15
-4 -8 9 -8 15 -2 15 6 0 14 -5 17 -11z m63 -25 c-5 -28 -41 -24 -43 4 -1 12 2
22 7 22 4 0 8 -9 8 -21 0 -11 4 -17 10 -14 6 4 8 16 4 28 -5 17 -3 19 6 11 6
-7 10 -20 8 -30z m-326 -25 c-1 -19 0 -21 8 -9 14 22 36 -2 23 -25 -12 -20
-23 -21 -34 -3 -6 10 -9 8 -9 -7 0 -17 -2 -17 -10 -5 -8 13 -10 12 -10 -2 0
-21 -16 -24 -23 -5 -3 7 -6 5 -6 -5 -1 -20 -21 -25 -22 -5 0 6 -4 2 -9 -10
-13 -32 -34 -30 -26 2 15 60 24 72 60 79 20 4 36 12 36 17 0 6 6 9 13 6 6 -2
11 -15 9 -28z m-335 -11 c-6 -4 -14 -3 -18 3 -3 5 -13 7 -22 3 -9 -3 -17 -2
-17 4 0 16 21 19 46 8 15 -7 19 -13 11 -18z m51 14 c2 -7 -5 -12 -15 -11 -12
0 -14 2 -4 6 11 5 11 7 0 15 -12 8 -12 9 0 6 8 -3 17 -10 19 -16z m332 8 c8
-5 11 -10 5 -10 -5 0 -17 5 -25 10 -8 5 -10 10 -5 10 6 0 17 -5 25 -10z m274
-36 c4 -9 4 -19 1 -22 -3 -3 -5 1 -5 8 0 9 -5 7 -14 -6 -8 -10 -18 -16 -22
-11 -4 4 -2 7 5 7 8 0 10 7 6 20 -8 25 20 28 29 4z m-450 -49 c-8 -43 -3 -43
77 -9 34 14 64 23 67 19 3 -3 11 -22 18 -42 11 -32 11 -38 -4 -50 -35 -28
-110 -62 -194 -88 -49 -15 -88 -29 -88 -30 0 -2 30 -3 68 -2 63 1 71 -2 136
-42 86 -53 111 -63 161 -63 55 1 66 -10 52 -53 -7 -25 -7 -42 1 -60 18 -38 14
-65 -13 -110 l-25 -40 0 38 c0 54 -37 135 -69 152 -15 7 -53 18 -86 24 -33 6
-105 24 -160 40 -55 17 -117 33 -137 36 -44 7 -68 28 -68 58 0 35 231 257 267
257 2 0 1 -16 -3 -35z m181 5 c3 -5 1 -10 -4 -10 -6 0 -11 5 -11 10 0 6 2 10
4 10 3 0 8 -4 11 -10z m245 -10 c0 -5 -7 -10 -16 -10 -8 0 -12 5 -9 10 3 6 10
10 16 10 5 0 9 -4 9 -10z m-235 -20 c3 -5 2 -10 -4 -10 -5 0 -13 5 -16 10 -3
6 -2 10 4 10 5 0 13 -4 16 -10z m215 -25 c-13 -14 -28 -25 -34 -24 -6 0 -5 3
2 6 6 2 10 9 6 14 -3 5 2 9 11 9 9 0 13 5 10 10 -3 6 2 10 11 10 15 0 14 -4
-6 -25z m-190 -10 c19 -23 8 -25 -14 -4 -11 11 -15 19 -9 19 6 0 16 -7 23 -15z
m128 -68 c5 -24 -15 -21 -28 4 -10 18 -9 20 7 17 10 -2 19 -11 21 -21z m-43 2
c11 -17 -1 -21 -15 -4 -8 9 -8 15 -2 15 6 0 14 -5 17 -11z m-30 -8 c3 -5 1
-12 -5 -16 -5 -3 -10 1 -10 9 0 18 6 21 15 7z m25 -32 c0 -5 -4 -7 -10 -4 -5
3 -10 -2 -10 -11 0 -14 -3 -15 -12 -6 -10 10 -10 15 2 22 20 13 30 12 30 -1z
m48 -7 c2 -7 -2 -10 -12 -6 -9 3 -16 11 -16 16 0 13 23 5 28 -10z m-15 -71
c20 -26 37 -57 37 -67 0 -13 -8 -6 -25 21 -66 109 -69 121 -12 46z m-48 29 c3
-5 1 -10 -4 -10 -6 0 -11 5 -11 10 0 6 2 10 4 10 3 0 8 -4 11 -10z m180 -80
c17 0 25 -5 22 -12 -2 -7 -13 -12 -25 -10 -28 4 -38 -16 -16 -33 11 -8 14 -15
7 -15 -10 0 -28 21 -87 99 -7 8 6 6 31 -8 23 -11 54 -21 68 -21z m10 -40 c3
-5 2 -10 -4 -10 -5 0 -13 5 -16 10 -3 6 -2 10 4 10 5 0 13 -4 16 -10z m40 0
c3 -5 2 -10 -4 -10 -5 0 -13 5 -16 10 -3 6 -2 10 4 10 5 0 13 -4 16 -10z m40
0 c3 -5 2 -10 -4 -10 -5 0 -13 5 -16 10 -3 6 -2 10 4 10 5 0 13 -4 16 -10z
m-65 -32 c0 -7 -4 -19 -9 -27 -11 -17 -23 1 -15 23 7 19 24 21 24 4z m67 -3
c0 -8 -4 -15 -8 -15 -11 0 -20 16 -12 24 11 11 20 7 20 -9z m39 -23 c2 -12 -4
-17 -21 -18 -14 -1 -25 2 -25 8 0 5 4 7 9 3 5 -3 13 4 16 16 7 22 17 18 21 -9z
m-56 -1 c0 -6 -9 -9 -20 -8 -11 1 -20 5 -20 9 0 4 9 8 20 8 11 0 20 -4 20 -9z"/>
<path d="M937 1163 c-4 -3 -7 -11 -7 -17 0 -6 5 -5 12 2 6 6 9 14 7 17 -3 3
-9 2 -12 -2z"/>
<path d="M933 1069 c-18 -5 -33 -15 -33 -21 0 -9 3 -9 12 0 7 7 21 12 33 12
11 0 27 5 35 10 13 9 13 10 0 9 -8 0 -30 -5 -47 -10z"/>
<path d="M930 980 c20 -13 40 -13 40 0 0 6 -12 10 -27 10 -22 0 -25 -2 -13
-10z"/>
<path d="M1030 980 c0 -5 9 -10 20 -10 11 0 20 5 20 10 0 6 -9 10 -20 10 -11
0 -20 -4 -20 -10z"/>
<path d="M988 883 c6 -2 18 -2 25 0 6 3 1 5 -13 5 -14 0 -19 -2 -12 -5z"/>
<path d="M988 863 c6 -2 18 -2 25 0 6 3 1 5 -13 5 -14 0 -19 -2 -12 -5z"/>
<path d="M813 1015 c-3 -9 -3 -18 -1 -21 3 -3 8 4 11 16 6 23 -1 27 -10 5z"/>
</g>
</svg>
